<svg id="Layer_1" data-name="Layer 1" xmlns="http://www.w3.org/2000/svg" viewBox="0 0 1541.1 1541.1"><defs><style>.cls-1{fill:#e50b7b;}</style></defs><title>Polka Analytics Logo</title><path class="cls-1" d="M307.24,1131c25.27-34.63,48.08-86.73,70.14-137.12,25.3-57.77,51.45-117.51,86.38-165.38,48.2-66,107.07-99.54,175-99.54s126.77,33.49,175,99.54c34.93,47.87,61.09,107.61,86.38,165.38,22.06,50.39,44.87,102.49,70.14,137.12,27.7,38,46,38,53.79,38s26.1,0,53.8-38c25.27-34.63,48.08-86.73,70.14-137.12,25.29-57.77,51.45-117.51,86.38-165.38,48.19-66,107.06-99.54,175-99.54s126.77,33.49,175,99.54c34.93,47.87,61.09,107.61,86.38,165.38,22.06,50.39,44.87,102.49,70.14,137.12,17.25,23.65,30.85,32.56,40.54,35.92a774.89,774.89,0,0,0,13.25-143c0-425.56-345-770.55-770.55-770.55S253.45,598.44,253.45,1024a774.89,774.89,0,0,0,13.25,143C276.39,1163.6,290,1154.68,307.24,1131Z" transform="translate(-253.45 -253.45)"/><path class="cls-1" d="M1619.59,1219.46c-34.93-47.87-61.09-107.61-86.38-165.38-22.06-50.39-44.87-102.49-70.14-137.12-27.69-38-46-38-53.79-38s-26.09,0-53.79,38c-25.27,34.63-48.08,86.73-70.14,137.12-25.3,57.77-51.45,117.51-86.38,165.38-48.2,66-107.06,99.54-175,99.54s-126.76-33.49-175-99.54c-34.93-47.87-61.09-107.61-86.38-165.38C740.6,1003.69,717.79,951.59,692.52,917c-27.7-38-46-38-53.79-38s-26.1,0-53.8,38c-25.27,34.63-48.08,86.73-70.14,137.12-25.29,57.77-51.45,117.51-86.38,165.38-34.6,47.42-74.71,78.06-119.71,91.57,113.83,283.41,391.19,483.52,715.3,483.52s601.47-200.11,715.3-483.52C1694.3,1297.52,1654.19,1266.88,1619.59,1219.46Z" transform="translate(-253.45 -253.45)"/></svg>